<svg width="496" height="149" viewBox="0 0 496 149" fill="none" xmlns="http://www.w3.org/2000/svg">
<g clip-path="url(#clip0_229_197)">
<g clip-path="url(#clip1_229_197)">
<path fill-rule="evenodd" clip-rule="evenodd" d="M148.094 17.4901C148.766 15.4199 148.319 12.202 147.425 9.44385C146.31 6.45427 144.741 3.92437 142.511 3.69928C140.72 3.69928 139.827 5.99775 139.38 8.52447C138.711 10.8229 138.486 12.8931 138.711 14.5036C139.158 16.3424 140.052 17.7215 141.839 19.1005C144.07 20.7079 146.975 20.9393 148.094 17.4901ZM192.114 134.28C197.925 134.28 199.041 130.831 199.041 125.083C199.041 116.574 199.262 107.152 199.262 99.3374H168.649V123.707C168.649 130.375 169.099 134.284 175.579 134.284C176.695 134.284 177.588 135.203 177.588 136.122V137.042C177.588 138.193 176.695 138.88 175.579 138.88H133.125C132.889 138.884 132.655 138.839 132.436 138.748C132.217 138.657 132.019 138.522 131.852 138.351C131.685 138.179 131.553 137.975 131.464 137.75C131.375 137.525 131.331 137.284 131.335 137.042V136.122C131.335 135.203 132.231 134.284 133.125 134.284C138.261 134.284 139.38 128.304 139.38 123.479V69.2228C139.38 64.8542 138.04 60.029 133.125 60.029C132.228 60.029 131.335 59.1096 131.335 57.9588V57.0394C131.335 55.8886 132.231 54.9724 133.125 54.9724H175.579C175.843 54.9715 176.105 55.0244 176.349 55.128C176.593 55.2316 176.815 55.3838 177.002 55.5759C177.188 55.768 177.336 55.9962 177.437 56.2474C177.538 56.4986 177.589 56.7677 177.588 57.0394V57.9588C177.59 58.2307 177.538 58.5003 177.438 58.7518C177.337 59.0033 177.19 59.2319 177.003 59.4243C176.816 59.6168 176.594 59.7693 176.35 59.8731C176.106 59.9768 175.844 60.0298 175.579 60.029C167.756 60.029 168.649 62.7871 168.649 70.1422V89.9153H199.262C199.262 83.7047 199.041 75.6585 199.041 69.2228C199.041 63.7065 197.7 60.029 192.114 60.029C191.849 60.0303 191.587 59.9776 191.342 59.874C191.098 59.7704 190.875 59.6179 190.688 59.4255C190.501 59.233 190.353 59.0042 190.252 58.7525C190.152 58.5008 190.1 58.231 190.102 57.9588V57.0394C190.101 56.7675 190.152 56.498 190.253 56.2467C190.354 55.9953 190.502 55.7669 190.689 55.5748C190.876 55.3826 191.099 55.2305 191.343 55.1271C191.587 55.0237 191.849 54.9711 192.114 54.9724H234.568C235.465 54.9724 236.358 55.8918 236.358 57.0394V57.9588C236.358 59.1096 235.465 60.029 234.568 60.029C227.866 60.029 228.76 66.6961 228.76 72.4439V123.711C228.76 128.77 228.982 134.287 234.568 134.287C235.465 134.287 236.358 135.206 236.358 136.125V137.045C236.358 138.196 235.465 138.884 234.568 138.884H192.114C190.995 138.884 190.102 138.196 190.102 137.045V136.125C190.102 135.2 190.995 134.28 192.114 134.28ZM275.014 104.391V122.785C275.014 127.382 275.014 134.28 280.153 134.28C281.272 134.28 281.94 135.2 281.94 136.119V137.039C281.94 138.189 281.272 138.877 280.153 138.877H241.72C240.605 138.877 239.93 138.189 239.93 137.039V136.119C239.93 135.2 240.601 134.28 241.72 134.28C247.303 134.28 248.422 133.361 248.422 127.154V67.8406C248.422 61.8646 247.303 60.0258 241.72 60.0258C240.826 60.0258 239.93 59.1064 239.93 57.9556V57.0362C239.93 55.8854 240.826 54.9692 241.72 54.9692H288.424C310.095 54.9692 319.033 61.6363 319.033 75.4303C319.033 87.6137 308.982 95.2002 299.593 97.7301C298.25 97.9583 297.359 98.1898 296.463 98.418C294.007 98.8809 294.007 98.418 296.685 98.6495C297.359 98.8809 298.472 98.8809 299.59 99.1123C305.627 100.491 309.423 103.938 312.775 110.605C315.675 116.581 318.359 122.332 321.261 128.308C323.276 132.448 326.851 136.585 328.863 136.585C330.428 136.585 331.097 136.585 331.097 138.652C331.097 140.951 329.753 140.951 327.301 140.951H319.03C304.508 140.951 302.271 136.585 295.794 123.019C293.332 117.503 290.876 111.987 287.971 106.464C286.858 104.629 285.962 104.397 283.728 104.397C280.375 104.391 278.366 104.391 275.014 104.391ZM275.014 94.0462H282.162C290.433 94.0462 295.572 87.1476 295.572 78.4103C295.572 70.3641 290.211 62.0897 281.94 62.0897H275.014V94.0462ZM360.148 63.0091C367.743 63.0091 373.557 71.5181 373.557 81.4031C373.557 82.5507 373.336 83.933 373.108 85.0806H346.075C346.072 74.7328 349.868 63.0091 360.148 63.0091ZM359.704 53.8121C333.784 53.8121 320.152 71.0584 320.152 94.5027C320.152 118.185 336.24 134.277 357.695 134.277C373.108 134.277 385.624 127.379 392.329 116.115C394.338 112.437 394.338 109.679 393.219 108.528C390.764 106.689 388.302 107.146 384.727 111.515C381.153 116.34 374.67 118.644 367.521 118.644C361.269 118.644 355.677 116.111 351.88 111.974C346.741 106.686 345.397 100.019 345.844 92.6608H390.764C393.663 92.6608 395.45 91.5131 396.347 89.6744C397.459 87.3727 397.459 84.3863 397.016 81.3999C393.219 62.5525 381.153 53.8121 359.704 53.8121ZM456.904 144.622C460.035 144.622 459.81 140.716 458.691 138.877L431.428 97.264V129.912C431.428 132.442 432.096 135.2 435.671 135.2C436.567 135.2 437.464 136.119 437.464 137.039V137.958C437.464 139.106 436.567 139.797 435.671 139.797H396.125C395.007 139.797 394.338 139.106 394.338 137.958V137.039C394.338 136.119 395.007 135.2 396.125 135.2C400.368 135.2 402.83 134.971 402.83 129.912V67.6092C402.83 62.0929 401.265 60.4823 396.125 60.4823C395.228 60.4823 394.338 59.563 394.338 58.4121V57.2645C394.338 56.3419 395.228 55.4226 396.125 55.4226H436.346C437.236 55.4226 438.133 56.3419 438.133 57.2645V58.4121C438.133 59.563 437.236 60.4823 436.346 60.4823C430.315 60.4823 431.428 66.4583 431.428 71.2899V91.0566L454.67 67.1495C457.57 64.1599 456.229 61.63 452.43 60.942C451.761 60.942 450.865 60.7138 449.752 60.7138C449.078 60.7138 448.409 60.0227 448.409 58.8719V57.7242C448.409 56.5734 449.078 55.8823 449.752 55.8823H483.712C484.608 55.8823 485.277 56.5734 485.277 57.7242V58.8719C485.277 60.0227 484.608 60.7138 483.712 60.7138C478.794 60.7138 476.338 62.3211 472.764 65.9986L451.093 87.8388L479.247 130.368C481.925 134.509 489.073 144.622 494.213 144.622C495.11 144.622 496 145.313 496 146.232V147.155C496 147.843 495.11 148.762 494.213 148.762H456.901C455.783 148.762 455.114 147.843 455.114 147.155V146.232C455.114 145.313 455.783 144.622 456.904 144.622ZM3.5213 17.9497C2.84957 15.8827 3.29636 12.4303 4.63673 9.44385C5.75525 6.22284 7.98921 3.46786 10.67 3.23643C12.6821 3.00817 13.8006 5.53489 14.4662 8.29621C14.916 10.8229 15.3628 13.1214 14.916 14.9633C14.4662 16.8021 13.3538 18.4126 11.1168 19.7917C8.43909 21.3958 4.86167 21.6241 3.5213 17.9497ZM16.7032 61.8614C16.7032 53.812 19.387 47.1449 23.8549 42.0915C26.9825 38.4108 27.2043 35.6526 23.8549 31.284C20.5025 27.1468 17.15 25.9959 12.2353 25.9959C6.87377 25.9959 2.18092 26.4588 0.393751 21.6273C-0.499833 18.644 0.171897 13.5843 1.95906 8.98734C3.74623 4.38725 7.09563 0.250014 10.898 0.0217532C13.3569 -0.209678 15.5908 1.40083 18.0497 5.07837C21.1742 10.3664 24.7516 18.1843 29.8913 22.7813C37.4898 28.7573 39.9487 30.3678 47.5442 28.0661C56.7049 25.0766 66.9842 24.1603 75.6982 24.1603C85.5307 24.1603 95.3632 25.308 105.193 26.4588C110.779 27.3813 115.919 27.841 119.046 26.4588C123.292 24.1603 126.42 20.2514 129.104 16.3456C132.231 11.7487 134.465 6.91714 136.924 3.92756C138.711 1.6291 140.498 0.481454 142.064 0.709715C145.863 1.16941 148.991 5.76632 151.003 10.5947C152.118 14.0439 152.565 17.4932 152.565 19.5603C152.79 25.9959 148.544 25.308 144.073 26.2305C139.83 27.1499 135.359 28.3007 131.113 30.8275C127.985 32.6662 124.411 34.9647 122.846 37.4977C121.055 40.0245 120.609 42.3229 120.609 45.3125V53.8184C120.609 60.4887 118.599 60.9484 112.563 60.9484C102.956 60.9484 106.977 55.6603 104.521 49.4529C102.062 42.5575 92.6763 32.9008 76.3669 32.9008C70.7804 32.9008 55.8083 37.726 55.8083 49.4529C55.8083 74.5109 134.687 67.3841 134.687 106.699C134.687 128.77 114.578 149 74.8016 149C56.7019 149 40.1675 145.094 25.6421 138.199C20.5025 135.666 21.396 133.83 21.396 127.851V110.376C21.396 105.779 22.5146 105.551 26.9825 105.317C29.5105 105.088 32.0531 105.088 34.581 105.317C38.6022 105.548 39.4957 105.548 39.4957 109.685V113.826C39.4957 124.858 55.8052 140.954 71.8959 140.954C85.9714 140.954 95.582 129.921 95.582 120.493C95.582 90.3687 16.7032 101.404 16.7032 61.8614Z" fill="#007A0E"/>
</g>
</g>
<defs>
<clipPath id="clip0_229_197">
<rect width="496" height="149" fill="white"/>
</clipPath>
<clipPath id="clip1_229_197">
<rect width="496" height="149" fill="white"/>
</clipPath>
</defs>
</svg>
