<?xml version="1.0" encoding="UTF-8" standalone="no"?>
<!DOCTYPE svg PUBLIC "-//W3C//DTD SVG 1.1//EN" "http://www.w3.org/Graphics/SVG/1.1/DTD/svg11.dtd">
<svg width="100%" height="100%" viewBox="0 0 1024 1024" version="1.1" xmlns="http://www.w3.org/2000/svg" xmlns:xlink="http://www.w3.org/1999/xlink" xml:space="preserve" xmlns:serif="http://www.serif.com/" style="fill-rule:evenodd;clip-rule:evenodd;stroke-miterlimit:10;">
    <path d="M331.4,828.5C331.4,828.5 393.4,856.1 412.6,848.4C431.7,848.4 424.1,873.7 467,889.8C509.9,905.9 533.6,913.5 555.1,922.7C576.5,931.9 627.9,933.4 621.7,901.3C615.5,869.2 596.4,872.9 617.9,844.6C637,819.5 571,798 531.2,798C491.4,798 443.3,809.4 414.2,791.8C385,774.1 296.9,794 331.4,828.5Z" style="fill:rgb(153,153,153);fill-rule:nonzero;"/>
    <g>
        <path d="M487.7,854.4C488,854.4 488.2,854.5 488.2,854.5C488.2,854.5 488,854.4 487.7,854.4Z" style="fill:rgb(175,159,127);fill-rule:nonzero;stroke:rgb(2,2,2);stroke-width:0.73px;"/>
        <path d="M497.3,879.5C497.3,880.6 455.6,878.9 452.2,876.1C448.8,873.2 453.9,866.4 453.6,863.2L453.6,863.1C453,860.2 442.8,864.5 442.8,856.7C442.8,848.7 442.5,847.6 439.7,843.3C436.8,839 437.4,835.3 440.3,828.7C443.2,822.1 443.7,799.6 443.4,793.6C443.1,787.6 439.4,785.3 440.3,780.5C441.2,775.6 441.4,773.4 440.9,769.9C440.3,766.5 440,756.5 442.9,750.5C445.8,744.5 448,730.5 448,730.5C448,730.5 481.9,733.4 489.9,741.4C479.2,750.7 478.5,761.2 471.6,788.3C464.7,815.3 467,830 468.6,837.6C470.1,845.2 477.3,845.7 480.8,850.1C483.5,853.5 486.7,854.4 487.9,854.6C487.1,854.5 485.5,854.6 485.6,856C485.6,856.2 485.7,856.5 485.8,856.7C486.6,858.1 489.7,859.1 492.6,862.6C495.8,866.3 497.3,878.3 497.3,879.5Z" style="fill:rgb(175,159,127);fill-rule:nonzero;stroke:rgb(2,2,2);stroke-width:1.45px;stroke-linejoin:round;"/>
        <path d="M497.3,879.5C497.3,880.6 455.6,878.9 452.2,876.1C448.8,873.2 453.9,866.4 453.6,863.2L453.6,863.1C453.4,862.3 452.6,862.1 451.4,862C448.2,861.7 442.8,862.4 442.8,856.7L442.8,852.8C442.7,849.7 442.4,848 441.5,846.2C441.1,845.3 440.5,844.4 439.7,843.2C438.9,842 438.4,840.9 438.1,839.7C437.3,836.6 438.2,833.4 440.3,828.6C443.2,822 443.7,799.5 443.4,793.5C443.4,792.8 443.3,792.2 443.2,791.6C442.4,786.9 439.5,784.6 440.3,780.3C441.2,775.4 441.4,773.2 440.9,769.7C440.3,766.3 440,756.3 442.9,750.3C445.8,744.3 448,730.3 448,730.3C448,730.3 457.4,731.1 467.5,733C476.5,734.7 486.1,737.4 489.9,741.1C479.2,750.4 478.5,760.9 471.6,788C464.7,815 467,829.7 468.6,837.3C470.1,844.9 477.3,845.4 480.8,849.8C483.5,853.2 486.7,854.1 487.9,854.3C487.1,854.2 485.5,854.3 485.6,855.7C485.6,855.9 485.7,856.2 485.8,856.4C486.6,857.8 489.7,858.8 492.6,862.3C495.8,866.3 497.3,878.3 497.3,879.5Z" style="fill:rgb(175,159,127);fill-rule:nonzero;"/>
        <path d="M497.3,879.5C497.3,880.6 455.6,878.9 452.2,876.1C448.8,873.2 453.9,866.4 453.6,863.2L453.6,863.1C458.6,861.1 475.9,854.5 485.6,856.5C486.4,857.9 489.5,858.9 492.4,862.4C495.8,866.3 497.3,878.3 497.3,879.5Z" style="fill:rgb(74,59,52);fill-rule:nonzero;stroke:rgb(10,10,10);stroke-width:1.45px;"/>
        <path d="M497.3,879.5C497.3,880.2 480.7,879.8 467.6,878.7C459.9,878 453.4,877.1 452.1,876.1C448.7,873.2 453.8,866.4 453.5,863.2L453.5,863.1C457.8,861.3 471.3,856.2 481.2,856.1C482.7,856.1 484.2,856.2 485.5,856.4C486.3,857.8 489.4,858.8 492.3,862.3C495.8,866.3 497.3,878.3 497.3,879.5Z" style="fill:rgb(74,59,52);fill-rule:nonzero;"/>
        <path d="M451.3,861.9C448.1,861.6 442.7,862.3 442.7,856.6L442.7,852.7C442.6,849.6 442.3,847.9 441.4,846.1C441,845.2 440.4,844.3 439.6,843.1C438.8,841.9 438.3,840.8 438,839.6C440,841.7 443,844.9 444.9,847.8C445.5,848.7 446.1,849.5 446.9,850.2C448.1,851.4 448.9,852.6 449.1,853.8C449.4,857.1 450.2,860 451.3,861.9Z" style="fill:rgb(131,117,91);fill-rule:nonzero;"/>
        <path d="M467.4,733.1C466.8,735.8 463.9,748 458.1,767C455.1,776.6 449,785.1 443.1,791.6C442.3,786.9 439.4,784.6 440.2,780.3C441.1,775.4 441.3,773.2 440.8,769.7C440.2,766.3 439.9,756.3 442.8,750.3C445.7,744.3 447.9,730.3 447.9,730.3C447.9,730.3 457.3,731.1 467.4,733.1Z" style="fill:rgb(158,143,113);fill-rule:nonzero;"/>
        <g>
            <path d="M706.3,676.4C700,691.2 695.4,694.5 695.6,715.6C695.8,736.7 694.1,744.7 688.6,750.6C683.1,756.5 676.8,761.6 672,771.5C667.5,780.8 658.5,783.6 646.3,783.1C645.5,783.1 644.7,783 643.8,783C630.3,782 624,779.6 624,762.4C624,745.3 630.3,730.2 638.7,729.8C643.8,729.6 649.1,730.9 652.8,730.9C655.2,730.9 656.9,730.4 657.4,728.5C658.4,724.5 661.5,714.9 663.4,709.6C663.7,708.6 664.1,707.8 664.3,707.1C665.8,703.1 667.5,695.9 662.4,693.2C657.3,690.5 659.7,694.4 649.8,693.8C639.9,693.2 630.9,691.5 626.2,683.1C621.4,674.7 605.3,680.2 605.3,680.2L612.2,658.9L624.7,620.6L627.7,547.8L635,531.2C635,531.2 680.2,562.1 673.9,649.5C678.5,649.5 687.5,643 694.9,647.4C702.3,652.1 712.6,661.6 706.3,676.4Z" style="fill:rgb(175,159,127);fill-rule:nonzero;stroke:rgb(7,7,7);stroke-width:1.45px;"/>
            <path d="M706.3,676.4C700,691.3 695.4,694.5 695.6,715.6C695.8,736.7 694.1,744.7 688.5,750.7C683,756.6 676.7,761.7 671.9,771.6C669.3,777.1 665,780.3 659.5,781.9C655.7,783 651.2,783.4 646.2,783.2C645.4,783.2 644.6,783.1 643.7,783.1C640.9,782.9 638.5,782.6 636.3,782.2C627.9,780.5 623.9,776.2 623.9,762.5C623.9,745.4 630.2,730.3 638.6,729.9C643.7,729.7 649,731 652.7,731C655.1,731 656.8,730.5 657.3,728.6C658.3,724.6 661.4,715 663.3,709.7C663.6,708.7 664,707.9 664.2,707.2C665.7,703.2 667.4,696 662.3,693.3C657.2,690.6 659.6,694.5 649.7,693.9C639.8,693.3 630.9,691.6 626.1,683.2C621.3,674.8 605.2,680.3 605.2,680.3L612.1,659L624.6,620.7L627.6,547.9L634.9,531.3C634.9,531.3 635.8,531.9 637.3,533.2C644.7,539.5 667.1,562.2 673,609.6C674.4,621.4 674.9,634.6 673.8,649.6C678.4,649.6 687.4,643.1 694.8,647.5C702.3,652.1 712.6,661.6 706.3,676.4Z" style="fill:rgb(175,159,127);fill-rule:nonzero;"/>
            <path d="M659.6,782C655.8,783.1 651.3,783.5 646.3,783.3C645.5,783.3 644.7,783.2 643.8,783.2C641,783 638.6,782.7 636.4,782.3C632,777.1 629.2,771.7 629.2,771.7L644.8,734.3C644.8,734.2 658.1,759.9 659.6,782Z" style="fill:rgb(158,143,113);fill-rule:nonzero;"/>
            <path d="M646.3,783.2C645.5,783.2 644.7,783.1 643.8,783.1C630.3,782.1 624,779.7 624,762.5C624,745.4 630.3,730.3 638.7,729.9C643.8,729.7 649.1,731 652.8,731C646.8,738.3 628.9,763.3 646.3,783.2Z" style="fill:rgb(74,59,52);fill-rule:nonzero;stroke:rgb(10,10,10);stroke-width:0.73px;"/>
            <path d="M671.2,698.3C669.4,703.4 666,707.3 663.3,709.7C663.6,708.7 664,707.9 664.2,707.2C665.7,703.2 667.4,696 662.3,693.3C657.9,691 659.1,693.4 653.5,693.9C652.5,694 651.3,694 649.8,693.9C639.9,693.3 631,691.6 626.2,683.2C621.4,674.8 605.3,680.3 605.3,680.3L612.2,659C620.1,647.8 628.9,635.9 628.9,635.9C628.9,635.9 637.4,640.5 637.9,647.9C638.5,655.3 631.6,667.6 645.6,671.9C659.6,676.2 668.7,661.9 670.2,671.3C670.3,672.2 670.5,673 670.6,673.9C672,682.5 674.1,690 671.2,698.3Z" style="fill:rgb(131,117,91);fill-rule:nonzero;"/>
            <g opacity="0.5">
                <g>
                    <path d="M653.3,667.5C654.4,665.5 655.8,663.7 657.3,661.9C658.8,660.2 660.4,658.5 662.1,657C663.8,655.5 665.7,654.1 667.6,652.8C669.5,651.5 671.6,650.5 673.7,649.7C671.8,651 670,652.3 668.2,653.7C666.4,655.1 664.7,656.5 663,658C659.8,661.1 656.6,664.3 653.3,667.5Z" style="fill:rgb(2,2,2);fill-rule:nonzero;"/>
                </g>
                <g>
                    <path d="M673,693.5C675.7,692.2 678.1,690.6 680.4,688.9C682.7,687.1 684.8,685.1 686.6,682.8C688.4,680.6 690,678.1 691.2,675.5C691.9,674.2 692.3,672.8 692.9,671.5C693.4,670.1 693.7,668.7 694.2,667.3C694.1,668 694,668.8 693.9,669.5C693.8,670.2 693.7,671 693.5,671.7C693.1,673.1 692.8,674.6 692.2,676C691.9,676.7 691.7,677.4 691.3,678.1L690.2,680.1C689.9,680.8 689.4,681.4 689,682L688.4,682.9L687.7,683.8C686.8,685 685.7,686.1 684.6,687.1L682.9,688.6C682.3,689.1 681.7,689.5 681.1,689.9C678.6,691.4 675.8,692.7 673,693.5Z" style="fill:rgb(2,2,2);fill-rule:nonzero;"/>
                </g>
            </g>
            <path d="M673,609.8C660.9,583 631.4,550.4 631.4,550.4L637.3,533.4C644.8,539.7 667.2,562.4 673,609.8Z" style="fill:rgb(158,143,113);fill-rule:nonzero;"/>
            <path d="M671.2,698.3C669.4,703.4 666,707.3 663.3,709.7C663.6,708.7 664,707.9 664.2,707.2C665.7,703.2 667.4,696 662.3,693.3C657.9,691 659.1,693.4 653.5,693.9C656.2,688.1 662.1,676 665.7,672.4C667.3,670.8 669,671.9 670.5,674C672,682.5 674.1,690 671.2,698.3Z" style="fill:rgb(107,92,68);fill-rule:nonzero;"/>
        </g>
        <path d="M572.7,262.1L558.7,255.3L543.1,256.8C543.2,255.3 545.2,245.5 545.2,243.7C545.5,227.1 543.1,198.7 527.2,170.3C522.3,161.1 507.5,140.1 501.1,124.3C501.3,122.1 501.8,120.1 502.6,118.7C503.4,117.3 504.7,116.4 506.3,116.3C516.6,116 560.6,165.2 567.4,185.7C574.3,206.3 569.7,214.5 571.1,226C573.2,243.2 572.7,262.1 572.7,262.1Z" style="fill:rgb(50,42,30);fill-rule:nonzero;stroke:rgb(5,5,5);stroke-width:1.45px;"/>
        <path d="M626.7,662.3C615.8,688.6 603.3,704.4 592.6,712C590.5,714 588.7,716.7 586.4,719.2C584.5,721.3 582.1,723.2 578.9,724.2C577.3,724.7 575.9,725 574.7,725.4C570.6,726.5 567.8,727.1 559.9,730.1C558.4,730.7 557,731.2 555.6,731.7C555.2,731.8 554.9,732 554.5,732.1C554.3,732.2 554.1,732.2 553.9,732.3C553.3,732.5 552.7,732.7 552.1,732.9C550.9,733.2 549.8,733.5 548.7,733.8C548.3,733.9 548,734 547.6,734C547.2,734.1 546.9,734.1 546.5,734.2C546.1,734.3 545.8,734.3 545.4,734.4C545,734.5 544.7,734.5 544.3,734.6C543.6,734.7 542.8,734.8 542.1,734.9C541.7,734.9 541.3,735 540.9,735C540.6,735 540.3,735.1 540.1,735.1C540.2,738.6 540.3,743.1 540.6,748.3C540.8,752.3 541,756.6 541.3,761.3C545.9,767 550.5,782.1 549.3,796.5C548.2,811 553.9,825.3 560,843C566.1,860.7 574.7,867.8 574.7,867.8C574.7,867.8 574.7,868.8 570.1,869.1C570.4,869.3 570.7,869.8 571.1,870.3C571.2,870.5 571.4,870.7 571.5,870.9C571.7,871.2 571.9,871.6 572.2,872C572.3,872.2 572.4,872.4 572.5,872.6C572.6,872.7 572.7,872.9 572.7,873C572.9,873.3 573,873.6 573.2,873.9C573.3,874 573.3,874.1 573.4,874.2C574.7,876.5 576.3,879.1 578.1,881.4C581.9,886.2 590.1,889 590.1,889C590.1,889 587.4,889 582.7,887.9C582.7,888 582.8,888.2 582.9,888.5C583.5,890.1 585.8,893.6 587.1,895.6C587.4,896.6 587.7,897.6 587.9,898.6C588,898.9 588,899.1 588.1,899.4C588.2,899.7 588.2,899.9 588.3,900.2C588.4,900.5 588.4,900.9 588.5,901.2C588.5,901.4 588.6,901.6 588.6,901.8C588.6,902.1 588.7,902.4 588.7,902.6C588.7,902.9 588.8,903.2 588.8,903.4C589.4,908 589.2,912.6 588,915.9C586.1,921.2 549.7,919.1 545.7,916.5C543.7,915.2 543.5,910.3 543.7,905.3L543.7,904.8C543.8,903.8 543.8,902.8 543.9,901.9C543.9,901.7 543.9,901.4 544,901.2C544,901 544,900.7 544.1,900.5L544.1,900.3C544.1,900 544.2,899.8 544.2,899.5C544.4,897.5 544.6,895.8 544.7,894.6L544.7,893.6C544.7,893 544.5,892.5 544.2,892.1C543.1,890.6 540.8,890.1 541.4,888.4C542.2,886.1 542.9,884.2 534.9,869.4C526.9,854.5 528.4,835.5 527.7,823.7C527.7,823.3 527.6,823 527.6,822.6C527.6,822.3 527.5,821.9 527.5,821.6L527.5,821.5C527.5,821.2 527.4,820.9 527.3,820.5C527.2,820.2 527.2,819.9 527.1,819.5C527,819.2 527,818.9 526.9,818.6C526.7,818 526.5,817.4 526.3,816.9C526.2,816.6 526.1,816.3 526,816.1C525.9,815.9 525.8,815.6 525.7,815.4C525.7,815.3 525.6,815.3 525.6,815.2C525.4,814.7 525.1,814.2 524.8,813.7C524.7,813.4 524.5,813.2 524.4,812.9C524.2,812.6 524.1,812.4 523.9,812.1C523.6,811.6 523.2,811 522.9,810.4C522.7,810.1 522.5,809.8 522.4,809.5C522.1,809.1 521.8,808.6 521.5,808.2C521.2,807.7 520.9,807.3 520.6,806.8C519.7,805.4 518.7,803.8 517.6,802C517.4,801.6 517.2,801.3 516.9,800.9C516.7,800.6 516.6,800.3 516.4,800C516.2,799.7 516,799.3 515.8,798.9C515.7,798.7 515.5,798.4 515.4,798.2C514.6,796.6 513.7,794.8 512.8,792.9C512.6,792.6 512.5,792.2 512.3,791.8C511.9,791 511.6,790.2 511.2,789.3C506.4,778.1 504.8,773 504.2,769C503.8,766 504,763.6 504,759.6C504,753.4 500.1,745.7 497.6,741.3C491.7,742 485.7,742.4 480,742.1C460,741.2 441.1,730.7 433.7,730.1C426.3,729.5 424.3,722.1 420.3,720.7C416.3,719.3 403.1,707 391.3,683.4C386.3,671.6 386.1,670.2 382.3,673.2C381.5,673.8 380.5,674.5 379.2,675.4C374.4,678.7 367.1,684.6 364.7,699.1C361.7,717.4 366.1,744.1 366.6,753C367.2,762 364.7,764.4 365.6,771.7C366.6,778.9 365.4,783.3 367.1,786.9C368.8,790.5 368.4,800.4 366.3,802.1C365.8,802.5 365.6,803.5 365.5,804.8C364.8,809.8 364.4,820.1 353,824.9C346.7,827.6 330.9,827.2 327.1,808.3C323.9,792.7 327.2,784.4 331.1,780.5C331.9,779.7 332.7,779.1 333.6,778.6C338.4,775.9 339.5,773.5 339.5,768.5C339.5,763.5 334.5,761.1 336.5,756.3C338.4,751.5 338.8,743.2 339.5,735C340.3,726.8 334.2,702.4 331.1,692C328.1,681.5 339.5,669.1 340.8,665.9C342.1,662.7 342.5,659.6 342.5,647.6C342.5,635.6 344.4,631.8 346.7,614.3C349,596.8 348.6,568 348.6,568C348.6,568 327.5,576 322.3,584.6C322.2,584.8 322.1,585 322,585.1C317.4,593.4 322.1,599.4 311.5,608.9C307.5,613.1 305.6,617.5 299.1,622.6C292.6,627.7 279.1,626.4 276.1,632.7C277.1,625.6 278,623.2 278,623.2C278,623.2 268.9,622.2 266.6,626.2C265.5,621.4 265.6,614.2 265.6,614.2L257.6,624.3C257.6,624.3 260.3,611.5 263.1,607C266,602.4 264.1,597.9 265.8,593.7C267.5,589.5 275.7,573.5 289.8,571.8C303.5,570.1 316.4,573.1 321.2,571.1C321.4,571 321.5,571 321.6,570.9C326,568.4 345.2,549.4 352.1,544.8C359,540.2 358.4,539.7 362,536C365.6,532.4 376.9,516.2 405.8,509C422.2,505.2 425.4,502.3 431.3,500.4C437.2,498.5 451.1,498.1 463.7,504C476.3,509.9 486.9,518.3 498.8,512.8C510.6,507.3 464.7,364.2 464.7,364.2C464.7,364.2 477.1,354.1 480.8,347.9C480.8,347.9 476.2,328.2 466.8,317C466,316.1 465.3,315.2 464.6,314.2C461.3,309.6 458.7,304.1 458.8,298.6C458.8,290.9 463.9,283.2 478.8,277.8C466.5,264.9 459.7,260.4 458.8,258.7C443.1,252.7 427.4,243.9 384.2,234.1C369.1,229.5 362.5,219.5 368.6,214.2C374.7,208.9 433.4,186.7 489.8,228.1C495.8,232.9 500.6,238.8 504.2,244.1C509.5,252 512.2,258.6 512.2,258.6L544.2,258.3C544.2,258.3 544.8,254.7 545.2,248.6C545.3,247.1 545.3,245.5 545.4,243.7C545.7,227.1 543.3,198.7 527.4,170.3C522.5,161.1 507.7,140.1 501.3,124.3C497.6,115.2 496.7,107.9 502,105.5C516.6,98.9 561.1,140.1 576.8,178.1C592.5,216.1 582.8,252.7 581.1,261C580.7,263.1 580.5,265.8 580.5,268.9C580.6,278 582.8,290.2 587.1,298.7C592.8,310.1 595.7,331.6 597.1,338.4C599.4,345.3 618.8,358.4 620.8,401.5C621.4,410.1 620.8,414.9 626.2,427.8C629.2,435 638.2,465.9 640.4,515.3C641.9,553.9 639.4,603.7 626.7,662.3Z" style="fill:rgb(175,159,127);fill-rule:nonzero;stroke:rgb(7,7,7);stroke-width:1.45px;"/>
        <path d="M640.7,544.7C640.2,578.1 636.4,617.7 626.7,662.4C615.8,688.7 603.3,704.5 592.6,712.1C590.5,714.1 588.7,716.8 586.4,719.3C584.5,721.4 582.1,723.3 578.9,724.3C577.3,724.8 575.9,725.1 574.7,725.5C570.6,726.6 567.8,727.2 559.9,730.2C558.4,730.8 557,731.3 555.6,731.8C555.2,731.9 554.9,732.1 554.5,732.2C554.3,732.3 554.1,732.3 553.9,732.4C553.3,732.6 552.7,732.8 552.1,733C550.9,733.3 549.8,733.6 548.7,733.9C548.3,734 548,734.1 547.6,734.1C547.2,734.2 546.9,734.2 546.5,734.3C546.1,734.4 545.8,734.4 545.4,734.5C545,734.6 544.7,734.6 544.3,734.7C543.6,734.8 542.8,734.9 542.1,735C541.7,735 541.3,735.1 540.9,735.1C540.6,735.1 540.3,735.2 540.1,735.2C540.2,738.7 540.3,743.2 540.6,748.4C540.8,752.4 541,756.7 541.3,761.4C545.9,767.1 550.5,782.2 549.3,796.6C548.2,811.1 553.9,825.4 560,843.1C566.1,860.8 574.7,867.9 574.7,867.9C574.7,867.9 574.7,868.9 570.1,869.2C570.4,869.4 570.7,869.9 571.1,870.4C571.2,870.6 571.4,870.8 571.5,871C571.7,871.3 571.9,871.7 572.2,872.1C572.3,872.3 572.4,872.5 572.5,872.7C572.6,872.8 572.7,873 572.7,873.1C572.9,873.4 573,873.7 573.2,874C573.3,874.1 573.3,874.2 573.4,874.3C574.7,876.6 576.3,879.2 578.1,881.5C581.9,886.3 590.1,889.1 590.1,889.1C590.1,889.1 587.4,889.1 582.7,888C582.7,888.1 582.8,888.3 582.9,888.6C583.5,890.2 585.8,893.7 587.1,895.7C587.4,896.7 587.7,897.7 587.9,898.7C588,899 588,899.2 588.1,899.5C588.2,899.8 588.2,900 588.3,900.3C588.4,900.6 588.4,901 588.5,901.3C588.5,901.5 588.6,901.7 588.6,901.9C588.6,902.2 588.7,902.5 588.7,902.7C588.7,903 588.8,903.3 588.8,903.5C589.4,908.1 589.2,912.7 588,916C586.1,921.3 549.7,919.2 545.7,916.6C543.7,915.3 543.5,910.4 543.7,905.4L543.7,904.9C543.8,903.9 543.8,902.9 543.9,902C543.9,901.8 543.9,901.5 544,901.3C544,901.1 544,900.8 544.1,900.6L544.1,900.4C544.1,900.1 544.2,899.9 544.2,899.6C544.4,897.6 544.6,895.9 544.7,894.7L544.7,893.7C544.7,893.1 544.5,892.6 544.2,892.2C543.1,890.7 540.8,890.2 541.4,888.5C542.2,886.2 542.9,884.3 534.9,869.5C526.9,854.6 528.4,835.6 527.7,823.8C527.7,823.4 527.6,823.1 527.6,822.7C527.6,822.4 527.5,822 527.5,821.7L527.5,821.6C527.5,821.3 527.4,821 527.3,820.6C527.2,820.3 527.2,820 527.1,819.6C527,819.3 527,819 526.9,818.7C526.7,818.1 526.6,817.5 526.3,817C526.2,816.7 526.1,816.4 526,816.2C525.9,815.9 525.8,815.7 525.7,815.5C525.7,815.4 525.6,815.4 525.6,815.3C525.4,814.8 525.1,814.3 524.8,813.8C524.7,813.5 524.5,813.3 524.4,813C524.2,812.7 524.1,812.5 523.9,812.2C523.6,811.7 523.2,811.1 522.9,810.5C522.7,810.2 522.5,809.9 522.4,809.6C522.1,809.2 521.8,808.7 521.5,808.3C521.2,807.8 520.9,807.4 520.6,806.9C519.7,805.5 518.7,803.9 517.6,802.1C517.4,801.7 517.2,801.4 516.9,801C516.7,800.7 516.6,800.4 516.4,800.1C516.2,799.8 516,799.4 515.8,799C515.7,798.8 515.5,798.5 515.4,798.3C514.6,796.7 513.7,794.9 512.8,793C512.6,792.7 512.5,792.3 512.3,791.9C511.9,791.1 511.6,790.3 511.2,789.4C506.4,778.2 504.8,773.1 504.2,769.1C503.8,766.1 504,763.7 504,759.7C504,753.5 500.1,745.8 497.6,741.4C491.7,742.1 485.7,742.5 480,742.2C460,741.3 441.1,730.8 433.7,730.2C426.3,729.6 424.3,722.2 420.3,720.8C416.3,719.4 403.1,707.1 391.3,683.5C386.3,671.7 386.1,670.3 382.3,673.3C381.5,673.9 380.5,674.6 379.2,675.5C375.8,677.9 371.1,681.5 367.8,688.7C366.5,691.6 365.4,695 364.7,699.2C361.7,717.5 366.1,744.2 366.6,753.1C367.2,762.1 364.7,764.5 365.6,771.8C366.3,777 365.9,780.7 366.2,783.7C366.3,784.9 366.6,786 367.1,787C368.8,790.6 368.4,800.5 366.3,802.2C365.8,802.6 365.6,803.6 365.5,804.9C364.8,809.9 364.4,820.2 353,825C346.7,827.7 330.9,827.3 327.1,808.4C323.9,792.8 327.2,784.5 331.1,780.6C331.9,779.8 332.7,779.2 333.6,778.7C338.4,776 339.5,773.6 339.5,768.6C339.5,763.6 334.5,761.2 336.5,756.4C338.4,751.6 338.8,743.3 339.5,735.1C340.3,726.9 334.2,702.5 331.1,692.1C328.1,681.6 339.5,669.2 340.8,666C342.1,662.8 342.5,659.7 342.5,647.7C342.5,635.7 344.4,631.9 346.7,614.4C348.6,600 348.7,578 348.6,570.6L348.6,568.1C348.6,568.1 327.5,576.1 322.3,584.7C322.2,584.9 322.1,585.1 322,585.2C317.4,593.5 322.1,599.5 311.5,609C307.5,613.2 305.6,617.6 299.1,622.7C292.6,627.8 279.1,626.5 276.1,632.8C277.1,625.7 278,623.3 278,623.3C278,623.3 268.9,622.3 266.6,626.3C265.5,621.5 265.6,614.3 265.6,614.3L257.6,624.4C257.6,624.4 260.3,611.6 263.1,607.1C266,602.5 264.1,598 265.8,593.8C267.5,589.6 275.7,573.6 289.8,571.9C303.5,570.2 316.4,573.2 321.2,571.2C321.4,571.1 321.5,571.1 321.6,571C326,568.5 345.2,549.5 352.1,544.9C359,540.3 358.4,539.8 362,536.1C364,534.1 368.5,528 377.2,521.9C381.1,519.1 385.9,516.3 391.7,513.8C395.9,512 400.5,510.4 405.8,509.1C422.2,505.3 425.4,502.4 431.3,500.5C437.2,498.6 451.1,498.2 463.7,504.1C476.3,510 486.9,518.4 498.8,512.9C509.5,507.9 472.5,389.1 465.7,367.6C465,365.5 464.7,364.3 464.7,364.3C464.7,364.3 477.1,354.2 480.8,348C480.8,348 480.2,345.3 478.9,341.4C477.9,338.3 476.6,334.5 474.8,330.6C474,328.8 473.1,327 472.2,325.3C470.6,322.4 468.8,319.6 466.8,317.2C466,316.3 465.3,315.4 464.6,314.4C461.3,309.8 458.7,304.3 458.8,298.8C458.8,296.8 459.2,294.8 460,292.8C462.2,287.2 467.9,282 478.9,278C476.8,275.8 474.9,273.9 473.1,272.1C464.4,263.6 459.6,260.3 458.9,258.8C443.2,252.8 427.5,244 384.3,234.2C369.2,229.6 362.6,219.6 368.7,214.3C374.8,209 433.5,186.8 489.9,228.2C495.9,233 500.7,238.9 504.3,244.2C508.5,250.4 511,255.8 511.9,257.9C512.1,258.5 512.3,258.8 512.3,258.8L514.7,258.8L537.9,258.6L544.2,258.5C544.2,258.5 544.4,257.3 544.7,255C544.9,253.4 545.1,251.3 545.2,248.8C545.3,247.3 545.3,245.7 545.4,243.9C545.7,227.3 543.3,198.9 527.4,170.5C522.5,161.3 507.7,140.3 501.3,124.5C497.6,115.4 496.7,108.1 502,105.7C516.6,99.1 561.1,140.3 576.8,178.3C590,210.3 585.2,241.4 582.4,255.3C581.9,257.9 581.4,259.9 581.1,261.2C580.7,263.3 580.5,266 580.5,269.1C580.6,278.2 582.8,290.4 587.1,298.9C592.8,310.3 595.7,331.8 597.1,338.6C599.4,345.5 618.8,358.6 620.8,401.7C621,405.3 621.1,408.3 621.5,411.5C622,415.8 623.1,420.6 626.3,428C629.3,435.2 638.3,466.1 640.5,515.5C640.7,524.5 640.8,534.3 640.7,544.7Z" style="fill:rgb(175,159,127);fill-rule:nonzero;"/>
        <path d="M515.5,322.7C515.5,322.7 514.4,315.5 518.1,309.3C521.8,303.1 534.4,295.8 544.8,306.7C542.6,311.3 525.6,316.5 525.6,316.5L515.5,322.7Z" style="fill:rgb(2,2,2);fill-rule:nonzero;"/>
        <path d="M597,338.4C597,338.4 590.2,328.5 560.9,323.5C559.3,322.4 573,280.7 534.5,267.4C534.1,267.2 533.6,267.1 533.1,266.9C532.7,266.8 532.4,266.7 532,266.6C532.9,263.1 535,260.5 537.7,258.4C539,257.4 540.4,256.6 542,255.9C542.8,255.5 543.7,255.2 544.5,254.9C553.5,251.6 564.2,251.8 565.9,252L566,252C566.7,252.1 573.8,253.4 582.1,255C581.9,256 581.7,256.9 581.5,257.8C581.2,259.1 581,260.1 580.8,260.9C580.4,263 580.2,265.7 580.2,268.8C580.3,272.6 580.6,276.9 581.4,281.2C582.5,287.4 584.3,293.6 586.8,298.6C592.7,310.1 595.5,331.5 597,338.4Z" style="fill:rgb(158,143,113);fill-rule:nonzero;"/>
        <path d="M539.3,269.5C521.9,264.1 506.7,267.3 503.5,269.7C500.4,272.1 495.8,280.9 481.8,281.9C472.6,282.5 464.3,288.6 459.8,292.7C462,287.1 467.7,281.9 478.7,277.9C476.6,275.7 474.7,273.8 472.9,272L483,267.3C483,267.3 510.3,258.2 511.4,257.9C511.5,257.9 511.6,257.9 511.7,257.8C512.1,257.8 512.7,257.9 514.5,258.6C517.6,259.9 524.2,262.8 539.3,269.5Z" style="fill:white;fill-opacity:0.3;fill-rule:nonzero;"/>
        <path d="M482,353.4C479,361.8 479.3,366.4 480.3,367.5C475.1,367.8 470,367.7 465.7,367.4C465,365.3 464.7,364.1 464.7,364.1C464.7,364.1 477.1,354 480.8,347.8C480.8,347.8 480.2,345.1 478.9,341.2C487.5,335.2 495,330.1 495.3,329.9C494.9,330.3 484.9,345.1 482,353.4Z" style="fill:rgb(158,143,113);fill-rule:nonzero;"/>
        <path d="M580.4,268.8C580.5,272.6 580.8,276.9 581.6,281.2C566.5,269.4 545.6,269.4 538.8,269.2C537.7,269.1 532.7,267.3 532.7,267.3L533,266.9L541.9,255.9L549.9,246.1C549.9,246.1 557.5,248.9 565.8,252C571.4,254.1 577.4,256.3 581.5,257.8C581.2,259.1 581,260.1 580.8,260.9C580.5,263 580.3,265.8 580.4,268.8Z" style="fill:rgb(131,117,91);fill-rule:nonzero;"/>
        <path d="M491.4,322.6C485.9,329.9 475.9,330.4 475.9,330.4L474.7,330.4C473.9,328.6 473,326.8 472.1,325.1C473.9,322.2 480.7,314 491.4,322.6Z" style="fill:rgb(2,2,2);fill-rule:nonzero;"/>
        <path d="M581,261C580.6,263.1 580.4,265.8 580.4,268.9C578.5,267 572.9,261.9 565.1,259.2C562.6,257.7 560.5,256.5 558.7,255.4C553,252 550.7,250.5 550.7,250.5L545.2,243.9C545.5,227.3 543.1,198.9 527.2,170.5C522.3,161.3 507.5,140.3 501.1,124.5C499.3,120 498.1,115.9 498.1,112.6C498.1,109.3 499.2,106.9 501.8,105.7C508.8,102.5 522.7,110.4 537,123.6C552.5,137.9 568.5,158.5 576.6,178.3C592.4,216.1 582.7,252.7 581,261Z" style="fill:rgb(35,28,18);fill-rule:nonzero;stroke:rgb(7,7,7);stroke-width:1.45px;"/>
        <path d="M581,261C580.6,263.1 580.4,265.8 580.4,268.9C578.5,267 572.9,261.9 565.1,259.2C562.6,257.7 560.5,256.5 558.7,255.4C553,252 550.7,250.5 550.7,250.5L545.2,243.9C545.5,227.3 543.1,198.9 527.2,170.5C522.3,161.3 507.5,140.3 501.1,124.5C499.3,120 498.1,115.9 498.1,112.6C498.1,109.3 499.2,106.9 501.8,105.7C508.8,102.5 522.7,110.4 537,123.6C552.5,137.9 568.5,158.5 576.6,178.3C592.4,216.1 582.7,252.7 581,261Z" style="fill:rgb(35,28,18);fill-rule:nonzero;"/>
        <path d="M572.7,262.1L558.7,255.3L543.9,255.7C544,254.2 545.2,245.5 545.3,243.8C545.6,227.2 543.2,198.8 527.3,170.4C522.4,161.2 507.6,140.2 501.2,124.4C501.4,122.2 501.9,120.2 502.7,118.8C503.5,117.4 504.8,116.5 506.4,116.4C516.7,116.1 560.7,165.3 567.5,185.8C574.4,206.4 569.8,214.6 571.2,226.1C573.2,243.2 572.7,262.1 572.7,262.1Z" style="fill:rgb(50,42,30);fill-rule:nonzero;"/>
        <path d="M532,517.1C532,517.1 545.6,497.8 552.5,492.9C559.4,488 576.2,528.7 572.5,545.3C583.1,522.8 580.2,488.7 575,484.3C569.8,479.9 542.1,464.8 542.1,464.8L532,517.1Z" style="fill:rgb(158,143,113);fill-rule:nonzero;"/>
        <path d="M572.7,262.1C572.7,262.1 561.6,252.4 558.1,231.5C554.7,210.6 560.7,195.8 550.7,180.9C541.2,166.8 521.5,126.3 502.7,118.7C503.5,117.3 504.8,116.4 506.4,116.3C516.7,116 560.7,165.2 567.5,185.7C574.4,206.3 569.8,214.5 571.2,226C573.2,243.2 572.7,262.1 572.7,262.1Z" style="fill:rgb(134,117,101);fill-rule:nonzero;"/>
        <path d="M640.7,544.7C640.4,538.6 636.6,484.8 581.4,452.6C604.4,443 616.4,422.1 621.3,411.3C621.8,415.6 622.9,420.4 626.1,427.8C629.1,435 638.1,465.9 640.3,515.3C640.7,524.5 640.8,534.3 640.7,544.7Z" style="fill:rgb(158,143,113);fill-rule:nonzero;"/>
        <path d="M504.1,244.1L503.1,252.6L502.9,254.2C502.9,254.2 500.9,267.7 496,271.6C495.7,271.8 495.4,272.1 495,272.3C493.7,273.1 492.1,273.9 490.4,274.5C485,276.5 478,277.4 478,277.4C465.7,264.5 459.4,260.2 458.6,258.5C442.9,252.5 427.2,243.7 384,233.9C368.9,229.3 362.3,219.3 368.4,214C374.5,208.7 433.2,186.5 489.6,227.9C495.7,232.9 500.5,238.8 504.1,244.1Z" style="fill:rgb(35,28,18);fill-rule:nonzero;stroke:rgb(7,7,7);stroke-width:1.45px;"/>
        <path d="M504.1,244.1L503.1,252.6L502.9,254.2C502.9,254.2 500.9,267.7 496,271.6C495.7,271.8 495.4,272.1 495,272.3C493.7,273.1 492.1,273.9 490.4,274.5C485,276.5 478,277.4 478,277.4C465.7,264.5 459.4,260.2 458.6,258.5C442.9,252.5 427.2,243.7 384,233.9C377.5,231.9 372.6,229 369.6,225.9C365.5,221.7 364.9,217.1 368.4,214.1C373.3,209.9 411.4,195 455.1,209.8C466.4,213.6 478,219.4 489.6,227.9C495.7,232.9 500.5,238.8 504.1,244.1Z" style="fill:rgb(35,28,18);fill-rule:nonzero;"/>
        <path d="M496.3,329.1L493.4,332.6L489.2,337.6L480.4,347.6C480.4,347.6 472.1,341.4 473.1,327C486.1,310.4 496.3,329.1 496.3,329.1Z" style="fill:white;fill-rule:nonzero;stroke:black;stroke-width:1.45px;"/>
        <path d="M599.1,645.6L586.4,719.3C584.5,721.4 582.1,723.3 578.9,724.3C577.3,724.8 575.9,725.1 574.7,725.5C570.6,726.6 567.8,727.2 559.9,730.2C558.4,730.8 557,731.3 555.6,731.8C555.2,731.9 554.9,732.1 554.5,732.2C554.3,732.3 554.1,732.3 553.9,732.4C553.3,732.6 552.7,732.8 552.1,733C550.9,733.3 549.8,733.6 548.7,733.9C548.3,734 548,734.1 547.6,734.1C547.2,734.2 546.9,734.2 546.5,734.3C546.1,734.4 545.8,734.4 545.4,734.5C545,734.6 544.7,734.6 544.3,734.7C543.6,734.8 542.8,734.9 542.1,735C541.7,735 541.3,735.1 540.9,735.1C542.7,729.1 555.5,685.8 555,642.8C559.1,635.8 567.1,623.5 572.5,622.4C575.5,621.8 580.4,625.3 585.1,629.8C592.1,636.6 599.1,645.6 599.1,645.6Z" style="fill:rgb(131,117,91);fill-rule:nonzero;"/>
        <path d="M496.2,329.1L493.3,332.6L489.4,337.3L489.2,337.6L480.4,347.6C480.4,347.6 472.1,341.4 473.1,327C479.5,318.9 485.2,319.2 489.3,321.7C493.6,324.2 496.2,329.1 496.2,329.1Z" style="fill:white;fill-rule:nonzero;"/>
        <path d="M496.2,329.1L493.3,332.6L489.4,337.3L488.9,337.3C484.6,337.3 481.1,333.8 481.1,329.5C481.1,325.2 484.6,321.7 488.9,321.7L489.2,321.7C493.6,324.2 496.2,329.1 496.2,329.1Z" style="fill:rgb(73,12,2);fill-rule:nonzero;stroke:rgb(7,7,6);stroke-width:0.89px;"/>
        <circle cx="490.7" cy="328.7" r="3.6" style="fill:rgb(12,12,11);"/>
        <circle cx="490.7" cy="325.8" r="1" style="fill:white;"/>
        <path d="M516.1,322.2C516.1,322.2 516.1,308.8 528,304.3C535.6,301.4 542.4,305.3 544.4,306.9C548.4,314.8 532.5,327.1 516.1,322.2Z" style="fill:white;fill-rule:nonzero;stroke:black;stroke-width:1.45px;"/>
        <path d="M539.2,318.5C536.2,320.7 532.1,322.4 527.6,323C524,323.5 520.1,323.3 516.1,322.2C516.1,322.2 516.1,308.8 528,304.3C535.6,301.4 542.4,305.3 544.4,306.9C546.2,310.6 543.9,315.1 539.2,318.5Z" style="fill:white;fill-rule:nonzero;"/>
        <path d="M539.5,316.1C539.5,316.9 539.4,317.8 539.1,318.5C536.1,320.7 532,322.4 527.5,323C525.1,321.6 523.4,319 523.4,316C523.4,311.6 527,308 531.4,308C535.9,308.1 539.5,311.7 539.5,316.1Z" style="fill:rgb(73,12,2);fill-rule:nonzero;stroke:rgb(7,7,6);stroke-width:0.73px;"/>
        <circle cx="531.5" cy="315.7" r="2.8" style="fill:rgb(12,12,11);"/>
        <path d="M496.2,286.8C496.2,286.8 495.8,274.4 513.2,275.8C530.5,277.1 542.9,283.2 546.5,291C539.8,285.2 504.6,271.1 496.2,286.8Z" style="fill:rgb(55,55,54);fill-rule:nonzero;stroke:rgb(5,5,5);stroke-width:0.73px;"/>
        <path d="M481.4,294.5C462.1,292.9 463.4,309.4 464.2,314.3C460.9,309.7 458.3,304.2 458.3,298.7C470.3,280.5 481.4,294.5 481.4,294.5Z" style="fill:rgb(55,55,54);fill-rule:nonzero;stroke:rgb(5,5,5);stroke-width:0.73px;"/>
        <path d="M498.7,374.4C498.7,374.4 506.7,381.3 522.1,380.4C537.5,379.5 562.1,367.5 568.4,385C574.7,402.5 567.5,426.7 568.4,435.3C569.3,443.9 563.5,458.7 554.4,459.3C545.3,459.9 547,417.6 547.5,416.7C548,415.8 526.6,395.6 526.6,395.6L501.7,401.6L498.7,374.4Z" style="fill:rgb(158,143,113);fill-rule:nonzero;"/>
        <path d="M527.1,419.9C527.1,419.9 531.5,423.8 536,420.8C540.5,417.8 541.4,413.4 541.4,412.1C541.4,410.8 542.7,411 543.4,409.2C544.1,407.5 540.8,403.9 540.8,403.9L527.1,419.9Z" style="fill:white;fill-rule:nonzero;stroke:rgb(5,5,5);stroke-width:0.73px;"/>
        <g>
            <path d="M509.2,467.6L516,457.2C516,457.2 514.1,451.2 513,449.2C512,447.2 506,448.9 506,448.9L505.4,461.1L509.2,467.6Z" style="fill:white;fill-rule:nonzero;stroke:rgb(5,5,5);stroke-width:0.73px;"/>
            <path d="M498.8,478.6C499.5,478.1 506.3,472.2 508.5,467.9C508.9,467.1 509.2,466.3 509.2,465.6C509.1,461.6 503.1,455.3 503.1,455.3C503.1,455.3 491.9,469.5 492,469.2C492,469 498.8,478.6 498.8,478.6Z" style="fill:white;fill-rule:nonzero;stroke:rgb(5,5,5);stroke-width:0.73px;"/>
            <path d="M470.4,488.4L467.5,478.8L475.8,475.6L483.3,488L470.4,488.4Z" style="fill:white;fill-rule:nonzero;stroke:rgb(5,5,5);stroke-width:0.73px;"/>
            <path d="M484.2,488.5C484.2,488.5 496.6,480.8 498.1,477.7C496.5,472.7 491.2,466.7 491.2,466.7L476.1,476.5C476.1,476.6 479.4,487.8 484.2,488.5Z" style="fill:white;fill-rule:nonzero;stroke:rgb(5,5,5);stroke-width:0.73px;"/>
            <path d="M526.7,439.6C526.7,439.6 522.2,434.2 524.3,430.4C526.4,426.5 527.2,429.8 530.1,426.5C533,423.3 534.2,429.1 534.4,429.2C534.6,429.3 527.7,440.4 527.7,440.4L526.7,439.6Z" style="fill:white;fill-rule:nonzero;stroke:rgb(5,5,5);stroke-width:0.73px;"/>
        </g>
        <path d="M626.7,662.3C615.8,688.6 603.3,704.4 592.6,712C590.5,714 588.7,716.7 586.4,719.2C584.5,721.3 582.1,723.2 578.9,724.2C577.3,724.7 575.9,725 574.7,725.4C577.3,715.5 593.3,651.5 585,629.8C584.9,629.5 584.7,629.2 584.6,628.8C574.7,606.3 563.6,567.5 569.4,540C575.1,512.6 565.2,487.4 544.6,470.3C524,453.2 567,443.2 567,443.2C567,443.2 601,440.1 618.7,467.5C626.9,480.2 634.8,496.6 640.3,515.3C641.9,553.9 639.4,603.7 626.7,662.3Z" style="fill:rgb(211,193,186);fill-rule:nonzero;"/>
        <path d="M565.2,445.2C565.2,445.2 548.2,449.2 540.7,456.4C546.8,447.9 566.9,443.2 566.9,443.2C566.9,443.2 600.9,440.1 618.6,467.5C626.8,480.2 634.7,496.6 640.2,515.3C640.3,518 640.4,520.7 640.5,523.5C634.8,505.1 624.7,481.5 616.9,469.4C599.2,442.1 565.2,445.2 565.2,445.2Z" style="fill:white;fill-opacity:0.3;fill-rule:nonzero;"/>
        <path d="M637.3,597.8C640.4,570.1 641.1,545.2 640.6,523.6C640.9,524.6 641.2,525.5 641.5,526.5C642.4,548.5 641,571.3 637.3,597.8Z" style="fill:white;fill-opacity:0.3;fill-rule:nonzero;"/>
        <path d="M539.2,515.9C539.1,515.9 538.9,516.1 538.6,516.1C538.9,516.1 539.1,516 539.2,515.9Z" style="fill:none;fill-rule:nonzero;stroke:white;stroke-width:0.17px;"/>
        <path d="M559,432.9C560.1,443.2 560.4,450.9 555.9,460C551.3,469.1 533.9,505.1 535.3,511.4C536.3,515.7 537.8,516.2 538.7,516.1C537.5,516.5 534.7,517.3 533.3,516.3C531.7,517.9 533.9,525.3 536,526.2C534.6,526.6 527,522.8 527,522.8C527,522.8 528.4,530.5 528,531.8C526.1,529.5 524.1,522.9 524.1,522.9C524.1,522.9 522.7,533.8 521.7,534.5C520.9,528.2 514.8,519.9 514.6,519.5C514.7,520 516.6,530 515.2,532.9C514.2,524.3 509.9,516.6 509.9,516.6C509.9,516.6 509.5,520.3 508,525.2C507.6,521.2 502.7,516.3 497.3,515C493.8,514.2 490.9,512.4 489.3,510.7C488.4,509.8 487.9,508.9 487.9,508.3C483.8,506.8 477.8,503.3 473.6,499.1C473.2,498.7 472.7,498.2 472.3,497.7C469.1,494 467.5,489.9 469.6,485.9C472.6,486.9 476.6,488.3 482,487C490.1,485.1 501.4,477.5 517.4,454.1C544,415.2 546.8,407 548.3,403.8C548.9,402.5 549.7,401.1 550.5,400C550.6,399.9 550.6,399.8 550.7,399.8C551.6,398.5 552.4,397.6 552.5,397.4C552,397.9 548.6,401.3 544.2,405.7C541.5,408.4 538.4,411.4 535.4,414.5C531.1,418.8 527,423 524.2,425.8C516.2,434 456,458.2 456,458.2C456,458.2 451.2,458.7 447.2,456.3C446.3,455.7 445.3,455 444.6,454.1C440.4,449.1 440.2,446.1 440.2,446.1C440.2,446.1 435.6,433.3 432.8,427.6C432.3,426.6 431.8,424.9 431.3,422.7C430.9,420.7 430.5,418.3 430.2,415.6C428.8,402.9 429.8,384 440.4,374.3C451.1,364.5 464.9,362.1 477.4,363.8C483,364.6 488.3,366.2 493,368.4C508.2,375.5 513.6,390.7 513.6,390.7C513.6,390.7 541.4,379.1 554.9,386.5C568.2,394 557.8,422.6 559,432.9Z" style="fill:rgb(221,203,186);fill-rule:nonzero;stroke:rgb(2,2,2);stroke-width:0.73px;"/>
        <path d="M472.2,395.3C470.1,396.7 467.9,399.1 469,401.8C470.4,405.4 480.7,401.9 483.1,393.8C485.5,385.7 480.8,379.8 476.1,376.5C476.3,376.6 476.4,377.2 476.5,377.4C476.7,377.7 476.8,378.1 476.9,378.4C477.2,379.2 477.4,379.9 477.6,380.7C478,382.4 478.1,384.2 478,385.9C477.9,387.7 477.5,389.4 476.6,391C475.7,392.7 474.4,393.9 472.7,394.9C472.7,395 472.4,395.2 472.2,395.3Z" style="fill:rgb(158,143,113);fill-opacity:0.5;fill-rule:nonzero;"/>
        <path d="M535.5,480.8C526.4,491.2 526.2,501.6 531.6,510.8C524.2,508.2 519.9,499.7 518.8,496C514.7,503.4 517.1,508.4 517.3,513C514.9,508 505.8,508.6 500.1,508.6C496.2,508.6 491.7,510 489.2,510.8C488.3,509.9 487.8,509 487.8,508.4C483.7,506.9 477.7,503.4 473.5,499.2C473.1,498.8 472.6,498.3 472.2,497.8L481.8,487.2C489.9,485.3 501.2,477.7 517.2,454.3C543.8,415.4 546.6,407.2 548.1,404C548.7,402.7 549.5,401.3 550.3,400.2C550.4,400.1 550.4,400 550.5,400C543.8,411.3 544.6,470.4 535.5,480.8Z" style="fill:rgb(158,143,113);fill-opacity:0.3;fill-rule:nonzero;"/>
        <path d="M475.7,397.3C475.7,397.3 469.8,399.2 471.3,402.7C472.7,406.3 484.3,404 486.7,395.8C489.1,387.7 484.4,381.8 479.7,378.5C482.3,383.3 483.6,393.8 475.7,397.3Z" style="fill:rgb(158,143,113);fill-opacity:0.5;fill-rule:nonzero;"/>
        <path d="M473.8,396.6C473.8,396.6 467.9,398.5 469.4,402C470.8,405.6 482.4,403.3 484.8,395.1C487.2,387 482.5,381.1 477.8,377.8C480.4,382.7 481.7,393.1 473.8,396.6Z" style="fill:rgb(42,42,41);fill-rule:nonzero;stroke:rgb(7,7,7);stroke-width:1.45px;"/>
        <path d="M473.8,396.6C473.8,396.6 467.9,398.5 469.4,402C470.8,405.6 482.4,403.3 484.8,395.1C487.2,387 482.5,381.1 477.8,377.8C480.4,382.7 481.7,393.1 473.8,396.6Z" style="fill:rgb(42,42,41);fill-rule:nonzero;"/>
        <path d="M485.5,390.6C485.5,392.1 485.3,393.6 484.8,395.3C482.4,403.4 470.8,405.7 469.4,402.2C469.2,401.6 469.1,401.1 469.2,400.7C469.2,400.9 469.3,401.1 469.4,401.4C470.8,405 482.4,402.7 484.8,394.5C485.2,393 485.4,391.8 485.5,390.6Z" style="fill:white;fill-opacity:0.3;fill-rule:nonzero;"/>
        <path d="M516.8,447.1C516.6,450.8 513.3,452.9 510.6,453.4C509.4,453.6 508.3,453.5 507.7,453.1C505.6,451.8 499.1,439.3 499.3,439.2C499.5,439.1 506.4,435 508.7,433.8C509.1,433.5 509.4,433.4 509.4,433.4C509.4,433.4 509.8,433.8 510.4,434.4C510.5,434.6 510.7,434.7 510.9,434.9C513,437.5 517,443.1 516.8,447.1Z" style="fill:white;fill-rule:nonzero;stroke:rgb(5,5,5);stroke-width:0.73px;"/>
        <path d="M505.5,440.9C505.8,443.9 508.9,450.6 510.6,453.4C509.4,453.6 508.3,453.5 507.7,453.1C505.6,451.8 499.1,439.3 499.3,439.2C499.5,439.1 506.4,435 508.7,433.8C509.4,434 509.9,434.2 510.3,434.4C510.6,434.6 510.9,434.7 511,434.9C511,434.9 510.9,434.9 510.8,435C509.8,435.3 505.2,437.4 505.5,440.9Z" style="fill:rgb(55,55,54);fill-opacity:0.3;fill-rule:nonzero;"/>
        <path d="M475.8,475.6C475.8,475.6 475.7,477.6 473.9,479C473.6,479.3 473.3,479.5 472.9,479.8C471.1,480.9 468.2,481.4 461.5,477.3C455.7,473.7 454.9,464.7 454.9,459.8C454.9,457.9 455.1,456.7 455.1,456.7C455.1,456.7 471.2,447.7 470.7,448.6C470.1,449.5 475.8,475.6 475.8,475.6Z" style="fill:white;fill-rule:nonzero;stroke:rgb(5,5,5);stroke-width:0.73px;"/>
        <path d="M508.5,453.6C508.5,455.4 504.4,462.8 499.4,464.1C497.7,464.6 495.8,464.3 494,462.8C489.4,459.1 485.8,451.9 483.9,447.4C482.9,445 482.3,443.3 482.3,443.3L501,436.7C501.1,436.9 508.5,451.2 508.5,453.6Z" style="fill:white;fill-rule:nonzero;stroke:rgb(5,5,5);stroke-width:0.73px;"/>
        <path d="M499.5,464.2C497.8,464.7 495.9,464.4 494.1,462.9C489.5,459.2 485.9,452 484,447.5C484.3,445.9 485,443.4 485.9,442.9C487.1,442.3 492.4,442.5 492.4,442.5C492.4,442.5 495.8,461 499.5,464.2Z" style="fill:rgb(55,55,54);fill-opacity:0.3;fill-rule:nonzero;"/>
        <path d="M475.8,475.6C475.8,475.6 475.7,477.6 473.9,479C473.6,479.3 473.3,479.5 472.9,479.8C465,479.1 465.4,466.5 463.6,461.9C462.1,458 457.1,459.2 454.9,459.8C454.9,457.9 455.1,456.7 455.1,456.7C455.1,456.7 471.2,447.7 470.7,448.6C470.1,449.5 475.8,475.6 475.8,475.6Z" style="fill:rgb(55,55,54);fill-opacity:0.3;fill-rule:nonzero;"/>
        <path d="M495.1,466.9C493.8,470.5 487.9,474 482.1,475.9C476.9,477.6 471.8,478 470.4,476.1C467.3,472 467.5,452 467.5,452L473.6,449L483.8,443.9C483.8,443.8 497.7,460.1 495.1,466.9Z" style="fill:white;fill-rule:nonzero;stroke:rgb(5,5,5);stroke-width:0.73px;"/>
        <path d="M482.1,475.9C476.9,477.6 471.8,478 470.4,476.1C467.3,472 467.5,452 467.5,452L473.6,449C474.3,452 478.1,469.1 482.1,475.9Z" style="fill:rgb(55,55,54);fill-opacity:0.1;fill-rule:nonzero;"/>
        <path d="M490,452.1C490.1,451.9 488.8,444.4 490.6,442.1C485.9,442.8 483.2,445 483.2,445.4C483.2,445.8 481.8,444.6 481.9,445C482,445.4 490,452.1 490,452.1Z" style="fill:rgb(182,152,142);fill-rule:nonzero;stroke:rgb(7,7,7);stroke-width:0.73px;"/>
        <path d="M544,405.9C541.3,408.6 538.2,411.7 535.2,414.7C530.9,419 526.8,423.2 524,426C516,434.2 455.8,458.4 455.8,458.4C455.8,458.4 451,458.9 447,456.5C446.1,455.9 445.2,455.2 444.4,454.3C440.2,449.3 440,446.3 440,446.3C440,446.3 435.4,433.5 432.6,427.8C432.1,426.8 431.6,425.1 431.1,422.9C435,421 452.1,411.5 456.4,403.6C461.2,394.8 467.6,399.8 468,406.8C468.4,413.8 467.8,429.7 482.1,425.5C494.4,421.8 525.7,419.2 544,405.9Z" style="fill:rgb(158,143,113);fill-opacity:0.3;fill-rule:nonzero;"/>
        <path d="M548.1,404.1C533,452.4 502.1,486.1 488.4,494.4C480.4,499.2 475.9,499.7 473.5,499.2C469.5,495.2 467.2,490.5 469.5,486.1C476.9,488.7 490.6,493.2 517.2,454.4C543.8,415.5 546.7,407.2 548.1,404.1Z" style="fill:rgb(182,152,142);fill-rule:nonzero;stroke:rgb(7,7,7);stroke-width:0.73px;"/>
        <path d="M535.2,414.7C530.9,419 526.8,423.2 524,426C516,434.2 455.8,458.4 455.8,458.4C455.8,458.4 451,458.9 447,456.5C450.8,455 461.7,450.4 480.9,441.9C502.3,432.3 520.7,426.6 535.2,414.7Z" style="fill:rgb(94,78,78);fill-rule:nonzero;stroke:rgb(7,7,7);stroke-width:0.73px;"/>
        <g>
            <path d="M554.5,631.9C554.7,634.1 554.8,636.3 555,638.5C555.1,640.7 555.3,642.9 555.3,645.1C555.3,647.3 555.4,649.5 555.3,651.7L555.1,658.3C554.7,667.1 553.8,675.8 552.6,684.5C551.3,693.2 549.7,701.8 547.7,710.4C546.7,714.7 545.6,718.9 544.5,723.2C543.3,727.4 542.1,731.6 540.6,735.8C541.7,731.6 542.8,727.3 543.8,723C544.8,718.7 545.8,714.5 546.6,710.2C548.4,701.6 550,693 551.1,684.3C552.4,675.6 553.3,666.9 553.9,658.2C554.7,649.4 554.6,640.7 554.5,631.9Z" style="fill:rgb(2,2,2);fill-rule:nonzero;"/>
        </g>
        <g>
            <path d="M552.1,604.9C550.2,598.8 547.7,592.9 545.1,587.2C542.3,581.5 539.1,576 535,571.2C534,570 533,568.9 531.7,568C530.5,567.1 529.1,566.4 527.7,566C524.8,565.1 521.6,565.4 518.6,566.3C515.6,567.1 512.7,568.6 510.1,570.2C508.7,571 507.4,571.9 506.1,572.8C504.8,573.7 503.6,574.8 502.4,575.8C506.8,571.2 512.1,567.3 518.3,565.2C521.4,564.2 524.8,563.8 528.1,564.7C529.7,565.1 531.2,565.9 532.6,566.9C533.9,567.9 535.1,569.1 536.1,570.3C540.2,575.3 543.5,580.9 546.1,586.7C546.8,588.2 547.3,589.7 547.9,591.1C548.5,592.6 549.1,594.1 549.6,595.6C550.5,598.7 551.5,601.8 552.1,604.9Z" style="fill:rgb(2,2,2);fill-rule:nonzero;"/>
        </g>
        <g>
            <path d="M548.6,474.5C553.1,478.6 556.9,483.4 560.3,488.5C561.9,491.1 563.4,493.7 564.7,496.5C566,499.3 567,502.2 567.6,505.2C566.4,502.4 565.1,499.7 563.7,497C562.2,494.4 560.7,491.8 559.1,489.3C557.5,486.8 555.8,484.3 554,481.8C552.2,479.4 550.4,477 548.6,474.5Z" style="fill:rgb(2,2,2);fill-rule:nonzero;"/>
        </g>
        <g>
            <path d="M393.5,564.1C392.4,568.7 390.7,573.1 389,577.5C387.3,581.9 385.5,586.2 384,590.6C383.3,592.8 382.6,595.1 382.1,597.3C381.6,599.6 381.4,601.8 381.2,604.2C381,606.5 381,608.9 380.9,611.2C380.8,613.6 380.7,616 380.1,618.3C379.8,619.5 379.5,620.6 379.2,621.8L378.9,622.7L378.7,623.5C378.6,623.8 378.6,624 378.5,624.3L378.4,625.1C378.1,627.3 378.7,629.5 379.4,631.8C380.1,634 380.8,636.4 380.9,638.9C381,641.4 380.4,643.8 379.5,646C378.7,648.2 378.1,650.4 377.9,652.7C377.8,655 377.9,657.3 378.2,659.6C378.9,664.2 380.2,668.8 382.1,673.1C380,668.9 378.4,664.4 377.5,659.7C377.1,657.4 376.9,655 377,652.6C377.1,650.2 377.7,647.8 378.5,645.6C379.3,643.5 379.8,641.2 379.7,638.9C379.6,636.6 379,634.4 378.2,632.2C377.5,630 376.8,627.5 377.1,625L377.2,624.1C377.2,623.8 377.3,623.5 377.4,623.2C377.5,622.6 377.7,622 377.9,621.5C378.2,620.4 378.5,619.3 378.8,618.1C379.3,615.9 379.5,613.6 379.6,611.2C379.7,608.9 379.8,606.5 380,604.1C380.2,601.8 380.4,599.3 381,597C381.5,594.7 382.3,592.4 383.1,590.2C384.8,585.8 386.7,581.5 388.5,577.2C390.3,572.9 392.1,568.6 393.5,564.1Z" style="fill:rgb(2,2,2);fill-rule:nonzero;"/>
        </g>
        <path d="M503.7,254.9C503.7,254.9 502.9,261 500.5,266.1C500.3,266.5 500.1,267 499.8,267.4C498.8,269.2 497.6,270.8 496.1,271.7C495.8,271.9 495.5,272.2 495.1,272.4C493.9,273.1 492.5,273.8 491,274.4C490.8,274.5 490.6,274.5 490.5,274.6C487,274 480.2,271.9 472,265.2C459.8,255.3 463,250 424.4,239.3C405.9,234.2 394.3,230.7 387.3,228.2C379.7,225.4 377.4,223.7 377.5,222.2C377.7,219.2 386.4,212.7 406.3,213.2C426.1,213.8 468,209 500.5,248C501.7,249.5 502.6,251.1 503.1,252.6L503.7,254.9Z" style="fill:rgb(50,42,30);fill-rule:nonzero;stroke:rgb(5,5,5);stroke-width:0.73px;"/>
        <path d="M497.4,741.2C491.5,741.9 485.5,742.3 479.8,742C459.8,741.1 440.9,730.6 433.5,730C426.1,729.4 424.1,722 420.1,720.6C416.1,719.2 402.9,706.9 391.1,683.3C386.1,671.5 385.9,670.1 382.1,673.1C382.1,673.1 374.3,657.4 378.9,646.2C383.5,635 375.7,631.1 378.3,622.6C379.8,617.8 380.1,615.2 380.2,611.9C391.9,606 416.1,620.2 436.9,643.5C453.9,662.5 474.8,668.3 485.7,670.1C485.8,671.7 485.8,673.5 485.9,675.7C486.3,691.3 488.7,721.9 497.4,741.2Z" style="fill:url(#_Linear1);fill-rule:nonzero;"/>
        <path d="M365.5,804.7C364.8,809.7 364.4,820 353,824.8C346.7,827.5 330.9,827.1 327.1,808.2C323.9,792.6 327.2,784.3 331.1,780.4C331.8,786.8 336.6,815.8 365.5,804.7Z" style="fill:rgb(56,42,37);fill-rule:nonzero;"/>
        <path d="M499.8,267.4C498.8,269.2 497.6,270.8 496.1,271.7C495.8,271.9 495.5,272.2 495.1,272.4C493.9,273.1 492.5,273.8 491,274.4C490.8,274.5 490.6,274.5 490.5,274.6C487,274 480.2,271.9 472,265.2C459.8,255.3 463,250 424.4,239.3C405.9,234.2 394.3,230.7 387.3,228.2C389.8,226.5 394.6,224.8 403.3,224.1C425.6,222.2 475.7,228.5 499.8,267.4Z" style="fill:rgb(134,117,101);fill-rule:nonzero;"/>
        <g>
            <path d="M518.5,328.8C520.3,329.1 522.1,329.3 523.9,329.4C525.7,329.5 527.5,329.5 529.3,329.4C532.9,329.2 536.4,328.5 539.6,327.1C542.8,325.7 545.7,323.5 547.8,320.7C549.9,317.9 551.5,314.6 552.5,311.1C552,314.7 550.8,318.3 548.7,321.4C547.7,323 546.3,324.3 544.9,325.5C543.5,326.7 541.8,327.7 540.1,328.4C536.7,329.9 532.9,330.5 529.2,330.5C525.6,330.6 521.9,330 518.5,328.8Z" style="fill:rgb(2,2,2);fill-rule:nonzero;"/>
        </g>
        <path d="M564.1,259.2C564.1,259.2 552.2,260 546.8,261.9C546.1,262.1 545.5,262.4 545.1,262.7C541.2,265.1 543,266.6 536.1,265.7C534.9,265.5 533,265.5 530.6,265.6C525.7,263.7 520.9,262.3 517.1,261.7C513.1,261.1 508.9,262.2 505.3,264C503.1,265.1 501.1,266.4 499.4,267.6C497,265.1 485.1,253.3 474.6,250.6C483.2,251 486.9,253.2 486.9,253.2C486.9,253.2 488.2,246.1 480.3,240.8C488.7,242.7 489.7,243.9 489.8,244.1C489.6,243.5 486.9,233.2 475.4,227.7C484.1,230.8 489.8,237.7 489.8,237.7C489.8,237.7 489.4,226.8 493.8,222.8C499.8,227.9 500.1,229.8 505.7,232.5C510.5,234.8 511.3,235.5 511.4,235.6C511.2,235.1 508.7,229.8 508.3,226.5C512.4,231.1 515.6,233.6 515.7,236.8C517.3,231.9 515.8,227.5 515.8,227.5C515.8,227.5 525.7,234.5 526.4,238.8C527.5,233 525.5,230.5 525.3,230.3C525.4,230.4 528,232.6 530.6,235.3C533,237.8 535.3,240.8 535.9,243.2C537,248.2 543.6,239.8 546.8,245.5C549.9,251.2 550.7,255.4 550.7,255.4C550.7,255.4 558.4,249.5 561.9,253.7C565.3,257.5 564.1,259.2 564.1,259.2Z" style="fill:rgb(55,55,54);fill-rule:nonzero;stroke:rgb(10,10,10);stroke-width:1.45px;"/>
        <g opacity="0.5">
            <g>
                <path d="M497.4,741.2C494.9,735.8 493.1,730.1 491.6,724.4C490.1,718.6 489,712.8 488.1,706.9C486.3,695.2 485.4,683.3 485.1,671.4C485,668.4 484.8,665.5 484.5,662.6C484.2,659.7 483.8,656.7 483.3,653.8C482.5,647.9 481.6,642 481.3,636.1C480.9,630.2 480.9,624.2 480.6,618.3C480.3,612.4 479.7,606.5 478.7,600.7C478.3,593.9 478,587.1 478.3,580.4L478.4,577.9C478.4,577.1 478.5,576.2 478.6,575.4L479,570.3C479.4,566.9 479.7,563.6 480.2,560.2C481.1,553.5 482.3,546.8 483.8,540.2C485.3,533.6 487.1,527.1 489.3,520.7C487.3,527.1 485.6,533.7 484.3,540.3C482.9,546.9 481.8,553.6 481,560.3C480.5,563.6 480.3,567 480,570.4L479.7,575.4C479.7,576.2 479.6,577.1 479.6,577.9L479.6,580.4C479.3,587.1 479.6,593.9 480.1,600.6L480.1,600.5C481.1,606.4 481.8,612.3 482.1,618.2C482.4,624.1 482.5,630.1 482.9,636C483.2,641.9 484,647.7 484.8,653.6C485.2,656.5 485.6,659.5 485.9,662.5C486.2,665.5 486.3,668.4 486.4,671.4C486.6,677.3 486.7,683.2 487.1,689.1C487.5,695 488.1,700.9 488.9,706.8C490.6,718.5 492.8,730.3 497.4,741.2Z" style="fill:rgb(2,2,2);fill-rule:nonzero;"/>
            </g>
            <g>
                <path d="M447.4,518C450.9,517.8 454.3,517.7 457.8,517.8C461.3,517.9 464.7,518.1 468.2,518.5C471.7,518.9 475.1,519.4 478.5,520.3C480.2,520.7 481.9,521.2 483.5,521.9C485.1,522.6 486.7,523.5 487.8,524.9C486.5,523.7 484.9,523.1 483.3,522.6C481.7,522.1 480,521.7 478.3,521.4C476.6,521.1 474.9,520.8 473.2,520.6C471.5,520.4 469.8,520.1 468.1,520C464.7,519.6 461.2,519.3 457.8,519L447.4,518Z" style="fill:rgb(2,2,2);fill-rule:nonzero;"/>
            </g>
        </g>
        <g>
            <path d="M551,277.1C549.4,275.4 547.4,274.2 545.4,273C543.4,271.8 541.3,270.8 539.2,269.8C535,267.9 530.6,266.1 526.2,264.7C524,264 521.8,263.3 519.5,262.8C518.4,262.5 517.2,262.3 516.1,262.2C515,262.1 513.9,262.1 512.7,262.2C510.4,262.4 508.2,263.2 506.1,264.1C504,265 502,266.2 500,267.5C501.8,266 503.7,264.6 505.8,263.5C507.9,262.4 510.2,261.5 512.5,261.1C513.7,260.9 514.9,260.8 516.1,260.9C517.3,261 518.5,261.2 519.7,261.5C522,262 524.3,262.7 526.5,263.4C531,264.9 535.3,266.7 539.5,268.9C541.6,270 543.6,271.2 545.6,272.5C546.6,273.2 547.5,273.9 548.4,274.6C549.4,275.3 550.3,276.1 551,277.1Z" style="fill:rgb(2,2,2);fill-rule:nonzero;"/>
        </g>
        <path d="M586.9,895.5C587.5,897.2 587.9,899.1 588.3,901.1C577.9,901.3 560.5,901.6 543.8,901.9C544.1,898 544.6,894.7 544.5,893.6C544.5,893 544.3,892.5 544,892.1C542.9,890.6 540.6,890.1 541.2,888.4C542,886.1 542.7,884.2 534.7,869.4C526.7,854.5 528.2,835.5 527.5,823.7C526.9,813.9 521.8,810.4 515.3,798.2C523.5,803.9 533.6,813.3 535.9,825.5C539.8,846.1 539.2,866.1 545.4,873.3C549.6,878.2 561.4,873.6 573.3,874.4C574.6,876.7 576.2,879.3 578,881.6C581.8,886.4 590,889.2 590,889.2C590,889.2 587.3,889.2 582.6,888.1C582.6,888.2 582.7,888.4 582.8,888.7C583.3,890 585.5,893.5 586.9,895.5Z" style="fill:rgb(131,117,91);fill-rule:nonzero;"/>
        <path d="M587.8,915.9C585.9,921.2 549.5,919.1 545.5,916.5C541.5,913.8 544.5,896.3 544.4,893.5C544.4,892.9 544.2,892.4 543.9,892C552.6,890.1 572.2,886.1 582.7,888.2C583.3,889.8 585.5,893.5 586.8,895.5C589,901.8 589.7,910.5 587.8,915.9Z" style="fill:rgb(74,59,52);fill-rule:nonzero;stroke:rgb(10,10,10);stroke-width:1.45px;"/>
        <path d="M588.6,912.8C588.4,913.9 588.2,915 587.8,915.9C585.9,921.2 549.5,919.1 545.5,916.5C543.1,914.9 543.2,908.1 543.7,902.2C544,898.2 544.5,894.7 544.5,893.5C544.5,892.9 544.3,892.4 544,892C552.7,890.1 572.3,886.1 582.8,888.2C583.4,889.8 585.6,893.5 586.9,895.5C588.6,900.7 589.4,907.5 588.6,912.8Z" style="fill:rgb(74,59,52);fill-rule:nonzero;"/>
        <path d="M322,585C320.2,588.2 319.8,591.1 319.4,594C318.7,598.5 318,603 311.5,608.8C307.5,613 305.6,617.4 299.1,622.5C292.6,627.6 279.1,626.3 276.1,632.6L276.1,632.4C277,625.5 278,623.1 278,623.1C278,623.1 268.9,622.1 266.6,626.1C265.5,621.3 265.6,614.1 265.6,614.1L257.6,624.2C257.8,623.4 260.3,611.3 263.1,606.9C266,602.3 264.1,597.8 265.8,593.6C267.5,589.4 275.7,573.4 289.8,571.7C292.3,571.4 294.7,571.3 297,571.2C307.8,570.9 317.2,572.7 321.1,571C321.4,574.7 321.8,579.9 322,585Z" style="fill:rgb(48,43,39);fill-rule:nonzero;"/>
        <path d="M297,571.2C287.1,575.9 274.9,586.4 270.8,593.9C265.8,603 270.4,598.7 265.8,605.9C261.3,612.9 257.8,623.4 257.6,624.1C257.8,623.3 260.3,611.2 263.1,606.8C266,602.2 264.1,597.7 265.8,593.5C267.5,589.3 275.7,573.3 289.8,571.6C292.2,571.4 294.6,571.2 297,571.2Z" style="fill:rgb(2,2,2);fill-rule:nonzero;"/>
        <path d="M319.4,594C318.7,598.5 318,603 311.5,608.8C307.5,613 305.6,617.4 299.1,622.5C292.6,627.6 279.1,626.3 276.1,632.6L276.1,632.4C276.3,631 277.7,623.6 284,622.8C290.9,621.8 296,625.3 301.5,617.4C307.1,609.5 313.7,606 316.8,599.1C317.7,597 318.6,595.3 319.4,594Z" style="fill:rgb(2,2,2);fill-rule:nonzero;"/>
        <g>
            <path d="M266.5,626.2C267.6,623.3 269.1,620.4 270.6,617.6C272.1,614.8 273.8,612.2 275.6,609.6C279.3,604.5 283.6,599.6 288.7,595.8C290,594.9 291.3,593.9 292.8,593.2L294.9,592.1L297,591.1C298.4,590.4 299.8,589.7 301.2,588.9C302.6,588.1 303.9,587.4 305.3,586.5C308,584.9 310.6,583.1 313,581.2C315.5,579.3 317.8,577.2 319.9,574.8C316.1,579.9 311.1,583.9 305.9,587.4C303.3,589.2 300.5,590.7 297.7,592.2L295.6,593.3L293.6,594.4C292.2,595.1 291,596.1 289.7,596.9C289,597.3 288.5,597.9 287.9,598.3C287.3,598.8 286.7,599.2 286.1,599.8C285,600.9 283.8,601.9 282.7,603L281.1,604.7L276.6,610.1C274.7,612.6 272.9,615.2 271.3,617.8C269.5,620.6 267.9,623.4 266.5,626.2Z" style="fill:rgb(2,2,2);fill-rule:nonzero;"/>
        </g>
        <path d="M365.5,771.5C366.2,776.7 365.8,780.4 366.1,783.4C359.1,777.4 352.7,767 352.4,754.7C351.8,735.2 346.3,715.2 351.3,698.6C354.3,688.5 362,687.6 367.6,688.4C366.3,691.3 365.2,694.7 364.5,698.9C361.5,717.2 365.9,743.9 366.4,752.8C367.1,761.8 364.6,764.2 365.5,771.5Z" style="fill:rgb(131,117,91);fill-rule:nonzero;"/>
        <path d="M564.1,259.2C564.1,259.2 552.2,260 546.8,261.9C546.3,254.7 540.7,252 535.9,249.2C531.6,246.7 530.8,238.9 530.6,235.1C533,237.6 535.3,240.6 535.9,243C537,248 543.6,239.6 546.8,245.3C549.9,251 550.7,255.2 550.7,255.2C550.7,255.2 558.4,249.3 561.9,253.5C565.3,257.5 564.1,259.2 564.1,259.2Z" style="fill:rgb(12,12,12);fill-rule:nonzero;"/>
        <path d="M505.3,263.9C503.1,265 501.1,266.3 499.4,267.5C497,265 485.1,253.2 474.6,250.5C475.5,250.7 494.2,254.7 505.3,263.9Z" style="fill:rgb(12,12,12);fill-rule:nonzero;"/>
        <path d="M494.1,223.1C494.1,223.1 492.7,252.5 522.1,256.1C506.1,248.2 497.9,235.9 494.1,223.1Z" style="fill:rgb(12,12,12);fill-rule:nonzero;"/>
        <g>
            <path d="M496.2,286.8C497.1,288.7 498,290.5 498.9,292.4C499.8,294.2 500.7,296.1 501.7,297.9C502.7,299.7 503.7,301.5 504.8,303.2C505.9,304.9 507.1,306.6 508.5,308.2C506.9,306.9 505.6,305.2 504.4,303.6C503.2,301.9 502.1,300.1 501.2,298.3C500.2,296.5 499.3,294.6 498.5,292.7C497.6,290.7 496.8,288.7 496.2,286.8Z" style="fill:rgb(131,117,91);fill-rule:nonzero;"/>
        </g>
        <g>
            <path d="M481.4,294.5C482.4,295.7 483.2,297 484.1,298.2C485,299.5 485.8,300.8 486.6,302.1C487.4,303.4 488.1,304.8 488.8,306.1C489.5,307.5 490.1,308.9 490.6,310.4C489.9,309 489.1,307.7 488.3,306.4L486,302.5L483.7,298.5C482.8,297.2 482.1,295.9 481.4,294.5Z" style="fill:rgb(131,117,91);fill-rule:nonzero;"/>
        </g>
        <path d="M477.2,363.9C449.3,366.1 434.6,402.1 430,415.6C428.6,402.9 429.6,384 440.2,374.3C450.9,364.6 464.7,362.2 477.2,363.9Z" style="fill:white;fill-opacity:0.3;fill-rule:nonzero;"/>
        <path d="M481.2,856.1C479.3,861 474.9,870.7 467.5,878.7C459.8,878 453.3,877.1 452,876.1C448.6,873.2 453.7,866.4 453.4,863.2L453.4,863.1C457.9,861.3 471.3,856.2 481.2,856.1Z" style="fill:rgb(56,42,37);fill-rule:nonzero;"/>
        <path d="M588.6,912.8C588.4,913.9 588.2,915 587.8,915.9C585.9,921.2 549.5,919.1 545.5,916.5C543.1,914.9 543.2,908.1 543.7,902.2C551.9,911.5 578.7,912.7 588.6,912.8Z" style="fill:rgb(56,42,37);fill-rule:nonzero;"/>
        <path d="M391.6,513.6C379.6,521 363.4,536.1 349.6,566.6C349.3,567.2 349,567.8 348.8,568.5C348.9,567.6 349.2,566.4 349.6,564.8C352.3,555.3 361.4,535.2 377.5,521.2C381.3,518.5 385.9,515.9 391.6,513.6Z" style="fill:rgb(131,117,91);fill-rule:nonzero;"/>
        <path d="M455.2,210C422.1,202.7 382.5,206 373.2,216.2C370.2,219.5 369.4,223 369.7,226C365.6,221.8 365,217.2 368.5,214.2C373.4,210 411.5,195.2 455.2,210Z" style="fill:white;fill-opacity:0.3;fill-rule:nonzero;"/>
        <path d="M537,123.4C527.7,117.1 516.6,111.2 508.4,110.6C503,110.2 499.8,111.1 498.1,112.4C498.1,109.1 499.2,106.7 501.8,105.5C508.8,102.4 522.7,110.2 537,123.4Z" style="fill:white;fill-opacity:0.3;fill-rule:nonzero;"/>
    </g>
    <defs>
        <linearGradient id="_Linear1" x1="0" y1="0" x2="1" y2="0" gradientUnits="userSpaceOnUse" gradientTransform="matrix(21.8589,103.367,-103.367,21.8589,425.363,634.483)"><stop offset="0" style="stop-color:rgb(175,159,127);stop-opacity:0.3"/><stop offset="0.06" style="stop-color:rgb(166,149,118);stop-opacity:0.3"/><stop offset="0.2" style="stop-color:rgb(147,131,100);stop-opacity:0.3"/><stop offset="0.37" style="stop-color:rgb(134,117,87);stop-opacity:0.3"/><stop offset="0.59" style="stop-color:rgb(126,109,79);stop-opacity:0.3"/><stop offset="1" style="stop-color:rgb(124,107,77);stop-opacity:0.3"/></linearGradient>
    </defs>
</svg>
